<svg width="362" height="60" fill="none" xmlns="http://www.w3.org/2000/svg"><path d="M43.108 1.233v57.534h-14.29V15.452H14.29v43.315H0V1.233h43.108zM99.817 51.37C94.176 57.123 87.257 60 79.062 60c-8.196 0-15.141-2.877-20.836-8.63-5.64-5.808-8.462-12.932-8.462-21.37s2.821-15.534 8.462-21.288C63.921 2.904 70.866 0 79.062 0c8.195 0 15.114 2.904 20.755 8.712 5.695 5.754 8.542 12.85 8.542 21.288s-2.847 15.562-8.542 21.37zM68.285 41.26c2.874 2.904 6.466 4.356 10.777 4.356 4.31 0 7.903-1.452 10.777-4.356 2.873-2.959 4.31-6.712 4.31-11.26s-1.437-8.274-4.31-11.178c-2.874-2.959-6.466-4.438-10.777-4.438-4.311 0-7.903 1.479-10.777 4.438-2.874 2.904-4.31 6.63-4.31 11.178 0 4.548 1.436 8.301 4.31 11.26zm93.004 17.507h-15.966l-16.046-25.726v25.726h-14.289V1.233h14.289v24.164l15.247-24.164h15.966l-17.722 27.945 18.521 29.59zm33.936-57.534h14.609l-16.126 39.863c-2.554 6.247-5.907 10.822-10.058 13.726-4.098 2.904-9.18 4.22-15.247 3.945V45.041c5.055.439 8.781-.959 11.176-4.192L161.298 1.233h14.688l10.298 23.507 8.941-23.507zm62.578 0v57.534h-14.289V15.452h-14.529v43.315h-14.289V1.233h43.107zm55.114 57.534h-15.966l-16.046-25.726v25.726h-14.289V1.233h14.289v24.164l15.247-24.164h15.966l-17.722 27.945 18.521 29.59zm34.873 0V29.836l-19.717 28.931h-11.096V1.233h14.289v28.931l19.718-28.931H362v57.534h-14.21z" fill="#fff"/></svg>