<svg width="133" height="60" fill="none" xmlns="http://www.w3.org/2000/svg"><path d="M40.47 49.49c-4.076 5.177-9.788 7.765-17.137 7.765-7.348 0-13.088-2.588-17.218-7.765C2.038 44.261 0 37.307 0 28.627S2.038 13.02 6.115 7.844C10.245 2.614 15.985 0 23.333 0c7.349 0 13.061 2.614 17.138 7.843 4.13 5.177 6.195 12.105 6.195 20.785S44.601 44.26 40.471 49.49zM14.403 28.627c0 9.987 2.977 14.98 8.931 14.98 5.954 0 8.931-4.993 8.931-14.98 0-9.986-2.977-14.98-8.93-14.98-5.955 0-8.932 4.993-8.932 14.98zM57.9 57.176c-2.361 0-4.373-.784-6.035-2.352-1.61-1.621-2.414-3.556-2.414-5.804 0-2.249.831-4.157 2.494-5.726 1.663-1.62 3.648-2.431 5.954-2.431 2.306 0 4.264.81 5.874 2.431 1.662 1.569 2.494 3.477 2.494 5.726 0 2.248-.832 4.183-2.494 5.803-1.61 1.57-3.568 2.353-5.874 2.353zm27.28-56h12.39v54.902H83.168V15.922l-9.816 2.43-3.46-11.842L85.18 1.176zM133 48.392c0 2.3-.751 4.17-2.253 5.608-1.502 1.412-3.46 2.261-5.873 2.549V60h-2.696v-3.412c-2.253-.157-4.184-.771-5.793-1.843s-2.762-2.523-3.46-4.353l4.788-2.706c.858 2.092 2.347 3.281 4.465 3.569V44.47h-.04l-.08-.04c-.939-.34-1.703-.64-2.294-.902-.59-.261-1.287-.64-2.091-1.137-.778-.497-1.395-1.006-1.851-1.53-.429-.548-.818-1.241-1.167-2.078-.321-.836-.482-1.751-.482-2.745 0-2.3.764-4.144 2.293-5.53 1.555-1.385 3.459-2.182 5.712-2.391v-3.412h2.696v3.49c3.647.418 6.222 2.261 7.724 5.53l-4.667 2.666c-.644-1.569-1.663-2.523-3.057-2.863v6.55c2.494.967 4.17 1.738 5.028 2.313 2.065 1.438 3.098 3.438 3.098 6zm-13.316-12.314c0 .576.188 1.085.563 1.53.376.418 1.019.85 1.931 1.294v-5.49c-.804.157-1.421.47-1.85.94-.429.472-.644 1.047-.644 1.726zm5.19 15.098c1.716-.366 2.574-1.28 2.574-2.745 0-.653-.214-1.202-.643-1.647-.403-.444-1.046-.862-1.931-1.255v5.647z" fill="#fff"/></svg>