<svg width="135" height="60" fill="none" xmlns="http://www.w3.org/2000/svg"><path d="M.88 56.078V45.882l18.57-19.215c1.868-1.987 3.23-3.582 4.083-4.785.854-1.255 1.28-2.483 1.28-3.686 0-1.36-.453-2.457-1.36-3.294-.854-.837-2.055-1.255-3.602-1.255-3.309 0-5.817 1.909-7.524 5.725L0 12.627c1.814-4.13 4.482-7.268 8.004-9.411C11.526 1.072 15.422 0 19.691 0c5.336 0 9.899 1.569 13.687 4.706 3.843 3.085 5.764 7.32 5.764 12.706 0 3.19-.774 6.144-2.322 8.863-1.494 2.666-3.708 5.49-6.643 8.47l-7.605 7.765h17.53v13.568H.88zm53.075 1.098c-2.348 0-4.35-.784-6.004-2.352-1.6-1.621-2.4-3.556-2.4-5.804 0-2.249.826-4.157 2.48-5.726 1.655-1.62 3.63-2.431 5.924-2.431 2.294 0 4.242.81 5.843 2.431 1.654 1.569 2.481 3.477 2.481 5.726 0 2.248-.827 4.183-2.481 5.803-1.6 1.57-3.549 2.353-5.843 2.353zM88.699 20.47c5.496 0 10.059 1.57 13.687 4.707 3.682 3.137 5.523 7.581 5.523 13.333 0 5.96-1.974 10.588-5.923 13.882-3.949 3.242-8.858 4.863-14.728 4.863-4.91 0-9.178-1.02-12.807-3.059-3.629-2.091-6.27-5.203-7.924-9.333l12.486-6.98c1.174 3.816 3.923 5.725 8.245 5.725 2.028 0 3.575-.445 4.643-1.333 1.12-.942 1.68-2.197 1.68-3.765 0-1.621-.56-2.876-1.68-3.765-1.068-.889-2.535-1.333-4.403-1.333h-17.93L71.89 1.176h32.978v13.412H85.097l-.4 5.883h4.002zM135 48.392c0 2.3-.747 4.17-2.241 5.608-1.494 1.412-3.442 2.261-5.843 2.549V60h-2.682v-3.412c-2.241-.157-4.162-.771-5.763-1.843s-2.748-2.523-3.442-4.353l4.763-2.706c.853 2.092 2.334 3.281 4.442 3.569V44.47h-.04l-.08-.04c-.934-.34-1.694-.64-2.281-.902-.587-.261-1.281-.64-2.081-1.137-.774-.497-1.388-1.006-1.841-1.53-.427-.548-.814-1.241-1.161-2.078-.32-.836-.48-1.751-.48-2.745 0-2.3.76-4.144 2.281-5.53 1.547-1.385 3.442-2.182 5.683-2.391v-3.412h2.682v3.49c3.628.418 6.19 2.261 7.684 5.53l-4.643 2.666c-.64-1.569-1.654-2.523-3.041-2.863v6.55c2.481.967 4.149 1.738 5.002 2.313 2.055 1.438 3.082 3.438 3.082 6zm-13.247-12.314c0 .576.186 1.085.56 1.53.374.418 1.014.85 1.921 1.294v-5.49c-.8.157-1.414.47-1.841.94-.427.472-.64 1.047-.64 1.726zm5.163 15.098c1.707-.366 2.561-1.28 2.561-2.745 0-.653-.213-1.202-.64-1.647-.401-.444-1.041-.862-1.921-1.255v5.647z" fill="#fff"/></svg>