<svg width="350" height="60" fill="none" xmlns="http://www.w3.org/2000/svg"><path d="M50.24 51.081c-5.662 5.676-12.607 8.514-20.833 8.514-8.227 0-15.198-2.838-20.913-8.514C2.83 45.351 0 38.324 0 30S2.831 14.676 8.494 9C14.209 3.27 21.18.405 29.407.405 37.633.405 44.577 3.27 50.24 9c5.716 5.676 8.574 12.676 8.574 21s-2.858 15.351-8.574 21.081zm-31.65-9.973c2.884 2.865 6.49 4.297 10.817 4.297s7.933-1.432 10.817-4.297C43.11 38.19 44.551 34.487 44.551 30c0-4.486-1.442-8.162-4.327-11.027-2.884-2.919-6.49-4.378-10.817-4.378s-7.933 1.46-10.817 4.378c-2.885 2.865-4.327 6.54-4.327 11.027 0 4.486 1.442 8.19 4.327 11.108zm101.044-26.757c4.381 4.054 6.571 9.27 6.571 15.649 0 6.378-2.19 11.622-6.571 15.73-4.38 4.054-10.47 6.567-18.269 7.54V60H87.583v-6.73c-7.799-.973-13.915-3.486-18.35-7.54-4.38-4.108-6.57-9.352-6.57-15.73s2.19-11.595 6.57-15.649c4.434-4.108 10.551-6.648 18.35-7.621V0h13.782v6.73c7.799.973 13.889 3.513 18.269 7.621zM77.006 30c0 5.622 3.526 8.946 10.577 9.973v-20.19c-3.632.541-6.303 1.65-8.013 3.325-1.71 1.676-2.564 3.973-2.564 6.892zm24.359 9.973c3.633-.54 6.304-1.622 8.013-3.243 1.709-1.676 2.564-3.92 2.564-6.73 0-2.919-.855-5.216-2.564-6.892-1.709-1.676-4.38-2.784-8.013-3.324v20.189zm85.017-25.622c4.38 4.054 6.57 9.27 6.57 15.649 0 6.378-2.19 11.622-6.57 15.73-4.381 4.054-10.47 6.567-18.27 7.54V60H154.33v-6.73c-7.799-.973-13.915-3.486-18.349-7.54-4.38-4.108-6.57-9.352-6.57-15.73s2.19-11.595 6.57-15.649c4.434-4.108 10.55-6.648 18.349-7.621V0h13.782v6.73c7.8.973 13.889 3.513 18.27 7.621zM143.754 30c0 5.622 3.525 8.946 10.576 9.973v-20.19c-3.632.541-6.303 1.65-8.012 3.325-1.71 1.676-2.564 3.973-2.564 6.892zm24.358 9.973c3.633-.54 6.304-1.622 8.013-3.243 1.71-1.676 2.564-3.92 2.564-6.73 0-2.919-.854-5.216-2.564-6.892-1.709-1.676-4.38-2.784-8.013-3.324v20.189zm45.193 4.784h21.715v13.621h-36.058V1.622h35.657v13.54h-21.314v7.865h19.311v13.378h-19.311v8.352zm50.333-43.135c5.663 0 10.417 1.864 14.263 5.594 3.846 3.73 5.769 8.487 5.769 14.27 0 5.784-1.923 10.541-5.769 14.27-3.846 3.73-8.6 5.595-14.263 5.595h-7.452v17.027h-14.343V1.622h21.795zm0 25.946c1.603 0 2.938-.568 4.007-1.703 1.121-1.135 1.682-2.595 1.682-4.378 0-1.784-.561-3.217-1.682-4.298-1.069-1.135-2.404-1.703-4.007-1.703h-7.452v12.082h7.452zm25.625 30.81V1.622h14.343v17.027h7.452c5.662 0 10.416 1.892 14.263 5.675 3.846 3.73 5.769 8.46 5.769 14.19 0 5.783-1.923 10.54-5.769 14.27-3.847 3.73-8.601 5.594-14.263 5.594h-21.795zm46.474 0V1.622H350v56.756h-14.263zm-32.131-13.783h7.452c1.602 0 2.938-.568 4.006-1.703 1.122-1.135 1.683-2.595 1.683-4.379 0-1.783-.561-3.216-1.683-4.297-1.068-1.135-2.404-1.703-4.006-1.703h-7.452v12.082z" fill="#fff"/></svg>