<svg width="150" height="60" fill="none" xmlns="http://www.w3.org/2000/svg"><path d="M41.782 1.233v14.22H28.014v43.314H13.768V15.452H0V1.232h41.782zM91.9 51.37C86.278 57.123 79.38 60 71.21 60c-8.17 0-15.095-2.877-20.772-8.63-5.623-5.808-8.435-12.932-8.435-21.37s2.812-15.534 8.435-21.288C56.115 2.904 63.038 0 71.21 0c8.17 0 15.068 2.904 20.692 8.712 5.677 5.754 8.515 12.85 8.515 21.288s-2.838 15.562-8.515 21.37zM60.466 41.26c2.865 2.904 6.446 4.356 10.744 4.356 4.297 0 7.879-1.452 10.744-4.356 2.865-2.959 4.297-6.712 4.297-11.26s-1.432-8.274-4.297-11.178c-2.865-2.959-6.447-4.438-10.744-4.438-4.298 0-7.879 1.479-10.744 4.438-2.865 2.904-4.298 6.63-4.298 11.178 0 4.548 1.433 8.301 4.298 11.26zM150 1.233v57.534h-14.246V15.452H121.27v43.315h-14.245V1.233H150z" fill="#fff"/></svg>