<svg width="362" height="60" viewBox="0 0 362 60" fill="none" xmlns="http://www.w3.org/2000/svg">
<path d="M43.1076 1.23288V58.7671H28.8182V15.4521H14.2894V58.7671H0V1.23288H43.1076Z" fill="white"/>
<path d="M99.8172 51.3699C94.176 57.1233 87.2575 60 79.0617 60C70.866 60 63.9208 57.1233 58.2264 51.3699C52.5852 45.5616 49.7645 38.4384 49.7645 30C49.7645 21.5616 52.5852 14.4658 58.2264 8.71233C63.9208 2.90411 70.866 0 79.0617 0C87.2575 0 94.176 2.90411 99.8172 8.71233C105.512 14.4658 108.359 21.5616 108.359 30C108.359 38.4384 105.512 45.5616 99.8172 51.3699ZM68.2848 41.2603C71.1587 44.1644 74.751 45.6164 79.0617 45.6164C83.3725 45.6164 86.9648 44.1644 89.8386 41.2603C92.7124 38.3014 94.1494 34.5479 94.1494 30C94.1494 25.4521 92.7124 21.726 89.8386 18.8219C86.9648 15.863 83.3725 14.3836 79.0617 14.3836C74.751 14.3836 71.1587 15.863 68.2848 18.8219C65.411 21.726 63.9741 25.4521 63.9741 30C63.9741 34.5479 65.411 38.3014 68.2848 41.2603Z" fill="white"/>
<path d="M161.289 58.7671H145.323L129.277 33.0411V58.7671H114.988V1.23288H129.277V25.3973L144.524 1.23288H160.49L142.768 29.1781L161.289 58.7671Z" fill="white"/>
<path d="M195.225 1.23288H209.834L193.708 41.0959C191.154 47.3425 187.801 51.9178 183.65 54.8219C179.552 57.726 174.47 59.0411 168.403 58.7671V45.0411C173.458 45.4795 177.184 44.0822 179.579 40.8493L161.298 1.23288H175.986L186.284 24.7397L195.225 1.23288Z" fill="white"/>
<path d="M257.803 1.23288V58.7671H243.514V15.4521H228.985V58.7671H214.696V1.23288H257.803Z" fill="white"/>
<path d="M312.917 58.7671H296.951L280.905 33.0411V58.7671H266.616V1.23288H280.905V25.3973L296.152 1.23288H312.118L294.396 29.1781L312.917 58.7671Z" fill="white"/>
<path d="M347.79 58.7671V29.8356L328.073 58.7671H316.977V1.23288H331.266V30.1644L350.984 1.23288H362V58.7671H347.79Z" fill="white"/>
</svg>
