<svg width="133" height="60" viewBox="0 0 133 60" fill="none" xmlns="http://www.w3.org/2000/svg">
<path d="M40.4709 49.4902C36.3943 54.6667 30.6817 57.2549 23.3331 57.2549C15.9845 57.2549 10.2451 54.6667 6.11488 49.4902C2.0383 44.2614 0 37.3072 0 28.6275C0 19.9477 2.0383 13.0196 6.11488 7.84314C10.2451 2.61438 15.9845 0 23.3331 0C30.6817 0 36.3943 2.61438 40.4709 7.84314C44.6011 13.0196 46.6662 19.9477 46.6662 28.6275C46.6662 37.3072 44.6011 44.2614 40.4709 49.4902ZM14.4022 28.6275C14.4022 38.6144 17.3791 43.6078 23.3331 43.6078C29.2871 43.6078 32.2641 38.6144 32.2641 28.6275C32.2641 18.6405 29.2871 13.6471 23.3331 13.6471C17.3791 13.6471 14.4022 18.6405 14.4022 28.6275Z" fill="white"/>
<path d="M57.8991 57.1765C55.5389 57.1765 53.5274 56.3922 51.8646 54.8235C50.2554 53.2026 49.4509 51.268 49.4509 49.0196C49.4509 46.7712 50.2823 44.8627 51.9451 43.2941C53.6079 41.6732 55.5926 40.8627 57.8991 40.8627C60.2055 40.8627 62.1634 41.6732 63.7726 43.2941C65.4354 44.8627 66.2668 46.7712 66.2668 49.0196C66.2668 51.268 65.4354 53.2026 63.7726 54.8235C62.1634 56.3922 60.2055 57.1765 57.8991 57.1765Z" fill="white"/>
<path d="M85.1797 1.17647H97.5704V56.0784H83.1682V15.9216L73.3522 18.3529L69.8925 6.5098L85.1797 1.17647Z" fill="white"/>
<path d="M133 48.3922C133 50.6928 132.249 52.5621 130.747 54C129.245 55.4118 127.287 56.2614 124.874 56.549V60H122.178V56.5882C119.925 56.4314 117.994 55.817 116.385 54.7451C114.776 53.6732 113.623 52.2222 112.925 50.3922L117.713 47.6863C118.571 49.7778 120.06 50.9673 122.178 51.2549V44.4706C122.151 44.4706 122.138 44.4706 122.138 44.4706L122.058 44.4314C121.119 44.0915 120.355 43.7908 119.764 43.5294C119.174 43.268 118.477 42.8889 117.673 42.3922C116.895 41.8954 116.278 41.3856 115.822 40.8627C115.393 40.3137 115.004 39.6209 114.655 38.7843C114.334 37.9477 114.173 37.0327 114.173 36.0392C114.173 33.7386 114.937 31.8954 116.466 30.5098C118.021 29.1242 119.925 28.3268 122.178 28.1176V24.7059H124.874V28.1961C128.521 28.6144 131.096 30.4575 132.598 33.7255L127.931 36.3922C127.287 34.8235 126.268 33.8693 124.874 33.5294V40.0784C127.368 41.0457 129.044 41.817 129.902 42.3922C131.967 43.8301 133 45.8301 133 48.3922ZM119.684 36.0784C119.684 36.6536 119.872 37.1634 120.247 37.6078C120.623 38.0261 121.266 38.4575 122.178 38.902V33.4118C121.374 33.5686 120.757 33.8824 120.328 34.3529C119.899 34.8235 119.684 35.3987 119.684 36.0784ZM124.874 51.1765C126.59 50.8105 127.448 49.8954 127.448 48.4314C127.448 47.7778 127.234 47.2288 126.805 46.7843C126.402 46.3399 125.759 45.9216 124.874 45.5294V51.1765Z" fill="white"/>
</svg>
