<svg width="135" height="60" viewBox="0 0 135 60" fill="none" xmlns="http://www.w3.org/2000/svg">
<path d="M0.880485 56.0784V45.8824L19.4507 26.6667C21.3184 24.6797 22.6792 23.085 23.533 21.8824C24.3868 20.6275 24.8137 19.3987 24.8137 18.1961C24.8137 16.8366 24.3601 15.7386 23.4529 14.902C22.5991 14.0654 21.3985 13.6471 19.8509 13.6471C16.5424 13.6471 14.0344 15.5556 12.3268 19.3725L0 12.6275C1.81433 8.49673 4.48247 5.35948 8.00441 3.21569C11.5264 1.0719 15.4218 0 19.6908 0C25.0271 0 29.5896 1.56863 33.3784 4.70588C37.2205 7.79085 39.1416 12.0261 39.1416 17.4118C39.1416 20.6013 38.3678 23.5556 36.8203 26.2745C35.3261 28.9412 33.1116 31.7647 30.1766 34.7451L22.5724 42.5098H40.1021V56.0784H0.880485Z" fill="white"/>
<path d="M53.9547 57.1765C51.6068 57.1765 49.6057 56.3922 47.9514 54.8235C46.3505 53.2026 45.5501 51.268 45.5501 49.0196C45.5501 46.7712 46.3772 44.8627 48.0315 43.2941C49.6857 41.6732 51.6601 40.8627 53.9547 40.8627C56.2493 40.8627 58.1971 41.6732 59.7979 43.2941C61.4522 44.8627 62.2793 46.7712 62.2793 49.0196C62.2793 51.268 61.4522 53.2026 59.7979 54.8235C58.1971 56.3922 56.2493 57.1765 53.9547 57.1765Z" fill="white"/>
<path d="M88.6989 20.4706C94.1952 20.4706 98.7577 22.0392 102.386 25.1765C106.068 28.3137 107.909 32.7582 107.909 38.5098C107.909 44.4706 105.935 49.098 101.986 52.3922C98.0373 55.634 93.128 57.2549 87.2581 57.2549C82.3487 57.2549 78.0797 56.2353 74.451 54.1961C70.8224 52.1046 68.1809 48.9935 66.5266 44.8627L79.0135 37.8824C80.1875 41.6993 82.9357 43.6078 87.2581 43.6078C89.2859 43.6078 90.8334 43.1634 91.9006 42.2745C93.0212 41.3333 93.5816 40.0784 93.5816 38.5098C93.5816 36.8889 93.0212 35.634 91.9006 34.7451C90.8334 33.8562 89.3659 33.4118 87.4982 33.4118H69.5683L71.8896 1.17647H104.868V14.5882H85.0969L84.6967 20.4706H88.6989Z" fill="white"/>
<path d="M135 48.3922C135 50.6928 134.253 52.5621 132.759 54C131.265 55.4118 129.317 56.2614 126.916 56.549V60H124.234V56.5882C121.993 56.4314 120.072 55.817 118.471 54.7451C116.87 53.6732 115.723 52.2222 115.029 50.3922L119.792 47.6863C120.645 49.7778 122.126 50.9673 124.234 51.2549V44.4706C124.207 44.4706 124.194 44.4706 124.194 44.4706L124.114 44.4314C123.18 44.0915 122.42 43.7908 121.833 43.5294C121.246 43.268 120.552 42.8889 119.752 42.3922C118.978 41.8954 118.364 41.3856 117.911 40.8627C117.484 40.3137 117.097 39.6209 116.75 38.7843C116.43 37.9477 116.27 37.0327 116.27 36.0392C116.27 33.7386 117.03 31.8954 118.551 30.5098C120.098 29.1242 121.993 28.3268 124.234 28.1176V24.7059H126.916V28.1961C130.544 28.6144 133.106 30.4575 134.6 33.7255L129.957 36.3922C129.317 34.8235 128.303 33.8693 126.916 33.5294V40.0784C129.397 41.0458 131.065 41.817 131.918 42.3922C133.973 43.8301 135 45.8301 135 48.3922ZM121.753 36.0784C121.753 36.6536 121.939 37.1634 122.313 37.6078C122.687 38.0261 123.327 38.4575 124.234 38.902V33.4118C123.434 33.5686 122.82 33.8824 122.393 34.3529C121.966 34.8235 121.753 35.3987 121.753 36.0784ZM126.916 51.1765C128.623 50.8105 129.477 49.8954 129.477 48.4314C129.477 47.7778 129.264 47.2288 128.837 46.7843C128.436 46.3399 127.796 45.9216 126.916 45.5294V51.1765Z" fill="white"/>
</svg>
