<svg width="350" height="60" viewBox="0 0 350 60" fill="none" xmlns="http://www.w3.org/2000/svg">
<path d="M50.2403 51.0811C44.5779 56.7568 37.6335 59.5946 29.407 59.5946C21.1805 59.5946 14.2094 56.7568 8.49358 51.0811C2.83119 45.3513 0 38.3243 0 30C0 21.6757 2.83119 14.6757 8.49358 9C14.2094 3.27027 21.1805 0.405405 29.407 0.405405C37.6335 0.405405 44.5779 3.27027 50.2403 9C55.9561 14.6757 58.814 21.6757 58.814 30C58.814 38.3243 55.9561 45.3513 50.2403 51.0811ZM18.5897 41.1081C21.4743 43.973 25.0801 45.4054 29.407 45.4054C33.7339 45.4054 37.3397 43.973 40.2243 41.1081C43.1089 38.1892 44.5512 34.4865 44.5512 30C44.5512 25.5135 43.1089 21.8378 40.2243 18.973C37.3397 16.0541 33.7339 14.5946 29.407 14.5946C25.0801 14.5946 21.4743 16.0541 18.5897 18.973C15.7051 21.8378 14.2628 25.5135 14.2628 30C14.2628 34.4865 15.7051 38.1892 18.5897 41.1081Z" fill="white"/>
<path d="M119.634 14.3513C124.015 18.4054 126.205 23.6216 126.205 30C126.205 36.3784 124.015 41.6216 119.634 45.7297C115.254 49.7838 109.164 52.2973 101.365 53.2703V60H87.5831V53.2703C79.784 52.2973 73.6675 49.7838 69.2338 45.7297C64.8534 41.6216 62.6633 36.3784 62.6633 30C62.6633 23.6216 64.8534 18.4054 69.2338 14.3513C73.6675 10.2432 79.784 7.7027 87.5831 6.72973V0H101.365V6.72973C109.164 7.7027 115.254 10.2432 119.634 14.3513ZM77.0062 30C77.0062 35.6216 80.5318 38.9459 87.5831 39.973V19.7838C83.9506 20.3243 81.2797 21.4324 79.5703 23.1081C77.8609 24.7838 77.0062 27.0811 77.0062 30ZM101.365 39.973C104.998 39.4324 107.669 38.3513 109.378 36.7297C111.087 35.0541 111.942 32.8108 111.942 30C111.942 27.0811 111.087 24.7838 109.378 23.1081C107.669 21.4324 104.998 20.3243 101.365 19.7838V39.973Z" fill="white"/>
<path d="M186.382 14.3513C190.762 18.4054 192.952 23.6216 192.952 30C192.952 36.3784 190.762 41.6216 186.382 45.7297C182.001 49.7838 175.912 52.2973 168.112 53.2703V60H154.33V53.2703C146.531 52.2973 140.415 49.7838 135.981 45.7297C131.601 41.6216 129.411 36.3784 129.411 30C129.411 23.6216 131.601 18.4054 135.981 14.3513C140.415 10.2432 146.531 7.7027 154.33 6.72973V0H168.112V6.72973C175.912 7.7027 182.001 10.2432 186.382 14.3513ZM143.754 30C143.754 35.6216 147.279 38.9459 154.33 39.973V19.7838C150.698 20.3243 148.027 21.4324 146.318 23.1081C144.608 24.7838 143.754 27.0811 143.754 30ZM168.112 39.973C171.745 39.4324 174.416 38.3513 176.125 36.7297C177.835 35.0541 178.689 32.8108 178.689 30C178.689 27.0811 177.835 24.7838 176.125 23.1081C174.416 21.4324 171.745 20.3243 168.112 19.7838V39.973Z" fill="white"/>
<path d="M213.305 44.7568H235.02V58.3784H198.962V1.62162H234.619V15.1622H213.305V23.027H232.616V36.4054H213.305V44.7568Z" fill="white"/>
<path d="M263.638 1.62162C269.301 1.62162 274.055 3.48648 277.901 7.21621C281.747 10.9459 283.67 15.7027 283.67 21.4865C283.67 27.2703 281.747 32.027 277.901 35.7568C274.055 39.4865 269.301 41.3514 263.638 41.3514H256.186V58.3784H241.843V1.62162H263.638ZM263.638 27.5676C265.241 27.5676 266.576 27 267.645 25.8649C268.766 24.7297 269.327 23.2703 269.327 21.4865C269.327 19.7027 268.766 18.2703 267.645 17.1892C266.576 16.0541 265.241 15.4865 263.638 15.4865H256.186V27.5676H263.638Z" fill="white"/>
<path d="M289.263 58.3784V1.62162H303.606V18.6486H311.058C316.72 18.6486 321.474 20.5405 325.321 24.3243C329.167 28.0541 331.09 32.7838 331.09 38.5135C331.09 44.2973 329.167 49.0541 325.321 52.7838C321.474 56.5135 316.72 58.3784 311.058 58.3784H289.263ZM335.737 58.3784V1.62162H350V58.3784H335.737ZM303.606 44.5946H311.058C312.66 44.5946 313.996 44.027 315.064 42.8919C316.186 41.7568 316.747 40.2973 316.747 38.5135C316.747 36.7297 316.186 35.2973 315.064 34.2162C313.996 33.0811 312.66 32.5135 311.058 32.5135H303.606V44.5946Z" fill="white"/>
</svg>
