<svg width="150" height="60" viewBox="0 0 150 60" fill="none" xmlns="http://www.w3.org/2000/svg">
<path d="M41.7815 1.23288V15.4521H28.0135V58.7671H13.768V15.4521H0V1.23288H41.7815Z" fill="white"/>
<path d="M91.9007 51.3699C86.2768 57.1233 79.3795 60 71.2089 60C63.0383 60 56.1145 57.1233 50.4375 51.3699C44.8136 45.5616 42.0016 38.4384 42.0016 30C42.0016 21.5616 44.8136 14.4658 50.4375 8.71233C56.1145 2.90411 63.0383 0 71.2089 0C79.3795 0 86.2768 2.90411 91.9007 8.71233C97.5777 14.4658 100.416 21.5616 100.416 30C100.416 38.4384 97.5777 45.5616 91.9007 51.3699ZM60.4651 41.2603C63.3301 44.1644 66.9114 45.6164 71.2089 45.6164C75.5064 45.6164 79.0877 44.1644 81.9527 41.2603C84.8177 38.3014 86.2502 34.5479 86.2502 30C86.2502 25.4521 84.8177 21.726 81.9527 18.8219C79.0877 15.863 75.5064 14.3836 71.2089 14.3836C66.9114 14.3836 63.3301 15.863 60.4651 18.8219C57.6 21.726 56.1675 25.4521 56.1675 30C56.1675 34.5479 57.6 38.3014 60.4651 41.2603Z" fill="white"/>
<path d="M150 1.23288V58.7671H135.754V15.4521H121.27V58.7671H107.025V1.23288H150Z" fill="white"/>
</svg>
